<svg id="visual" viewBox="0 0 960 540" width="960" height="540" xmlns="http://www.w3.org/2000/svg" xmlns:xlink="http://www.w3.org/1999/xlink" version="1.1"><rect x="0" y="0" width="960" height="540" fill="#011B10"></rect><defs><linearGradient id="grad1_0" x1="43.8%" y1="0%" x2="100%" y2="100%"><stop offset="14.444444444444446%" stop-color="#0c3e16" stop-opacity="1"></stop><stop offset="85.55555555555554%" stop-color="#0c3e16" stop-opacity="1"></stop></linearGradient></defs><defs><linearGradient id="grad1_1" x1="43.8%" y1="0%" x2="100%" y2="100%"><stop offset="14.444444444444446%" stop-color="#0c3e16" stop-opacity="1"></stop><stop offset="85.55555555555554%" stop-color="#063517" stop-opacity="1"></stop></linearGradient></defs><defs><linearGradient id="grad1_2" x1="43.8%" y1="0%" x2="100%" y2="100%"><stop offset="14.444444444444446%" stop-color="#042c16" stop-opacity="1"></stop><stop offset="85.55555555555554%" stop-color="#063517" stop-opacity="1"></stop></linearGradient></defs><defs><linearGradient id="grad1_3" x1="43.8%" y1="0%" x2="100%" y2="100%"><stop offset="14.444444444444446%" stop-color="#042c16" stop-opacity="1"></stop><stop offset="85.55555555555554%" stop-color="#042314" stop-opacity="1"></stop></linearGradient></defs><defs><linearGradient id="grad1_4" x1="43.8%" y1="0%" x2="100%" y2="100%"><stop offset="14.444444444444446%" stop-color="#011b10" stop-opacity="1"></stop><stop offset="85.55555555555554%" stop-color="#042314" stop-opacity="1"></stop></linearGradient></defs><defs><linearGradient id="grad2_0" x1="0%" y1="0%" x2="56.3%" y2="100%"><stop offset="14.444444444444446%" stop-color="#0c3e16" stop-opacity="1"></stop><stop offset="85.55555555555554%" stop-color="#0c3e16" stop-opacity="1"></stop></linearGradient></defs><defs><linearGradient id="grad2_1" x1="0%" y1="0%" x2="56.3%" y2="100%"><stop offset="14.444444444444446%" stop-color="#063517" stop-opacity="1"></stop><stop offset="85.55555555555554%" stop-color="#0c3e16" stop-opacity="1"></stop></linearGradient></defs><defs><linearGradient id="grad2_2" x1="0%" y1="0%" x2="56.3%" y2="100%"><stop offset="14.444444444444446%" stop-color="#063517" stop-opacity="1"></stop><stop offset="85.55555555555554%" stop-color="#042c16" stop-opacity="1"></stop></linearGradient></defs><defs><linearGradient id="grad2_3" x1="0%" y1="0%" x2="56.3%" y2="100%"><stop offset="14.444444444444446%" stop-color="#042314" stop-opacity="1"></stop><stop offset="85.55555555555554%" stop-color="#042c16" stop-opacity="1"></stop></linearGradient></defs><defs><linearGradient id="grad2_4" x1="0%" y1="0%" x2="56.3%" y2="100%"><stop offset="14.444444444444446%" stop-color="#042314" stop-opacity="1"></stop><stop offset="85.55555555555554%" stop-color="#011b10" stop-opacity="1"></stop></linearGradient></defs><g transform="translate(960, 0)"><path d="M0 459C-42.1 461.6 -84.3 464.3 -118.8 443.4C-153.3 422.4 -180.2 377.9 -193.5 335.2C-206.8 292.4 -206.7 251.4 -231.9 231.9C-257.2 212.4 -307.8 214.3 -342.9 198C-378.1 181.7 -397.6 147.1 -414.4 111C-431.1 75 -445.1 37.5 -459 0L0 0Z" fill="#031f12"></path><path d="M0 367.2C-33.7 369.3 -67.4 371.4 -95 354.7C-122.6 337.9 -144.1 302.3 -154.8 268.1C-165.5 233.9 -165.3 201.2 -185.5 185.5C-205.7 169.9 -246.3 171.5 -274.4 158.4C-302.4 145.3 -318.1 117.7 -331.5 88.8C-344.9 60 -356.1 30 -367.2 0L0 0Z" fill="#042815"></path><path d="M0 275.4C-25.3 277 -50.6 278.6 -71.3 266C-92 253.5 -108.1 226.7 -116.1 201.1C-124.1 175.4 -124 150.9 -139.2 139.2C-154.3 127.4 -184.7 128.6 -205.8 118.8C-226.8 109 -238.6 88.2 -248.6 66.6C-258.7 45 -267 22.5 -275.4 0L0 0Z" fill="#053016"></path><path d="M0 183.6C-16.9 184.7 -33.7 185.7 -47.5 177.3C-61.3 169 -72.1 151.2 -77.4 134.1C-82.7 117 -82.7 100.6 -92.8 92.8C-102.9 85 -123.1 85.7 -137.2 79.2C-151.2 72.7 -159.1 58.8 -165.8 44.4C-172.5 30 -178 15 -183.6 0L0 0Z" fill="#093916"></path><path d="M0 91.8C-8.4 92.3 -16.9 92.9 -23.8 88.7C-30.7 84.5 -36 75.6 -38.7 67C-41.4 58.5 -41.3 50.3 -46.4 46.4C-51.4 42.5 -61.6 42.9 -68.6 39.6C-75.6 36.3 -79.5 29.4 -82.9 22.2C-86.2 15 -89 7.5 -91.8 0L0 0Z" fill="#0c3e16"></path></g><g transform="translate(0, 540)"><path d="M0 -459C49.1 -472.9 98.1 -486.7 118.8 -443.4C139.5 -400 131.8 -299.5 149.5 -258.9C167.2 -218.4 210.4 -237.9 226.3 -226.3C242.2 -214.6 230.7 -171.9 260.7 -150.5C290.6 -129.1 361.9 -129.2 401.8 -107.7C441.8 -86.2 450.4 -43.1 459 0L0 0Z" fill="#031f12"></path><path d="M0 -367.2C39.2 -378.3 78.5 -389.4 95 -354.7C111.6 -320 105.4 -239.6 119.6 -207.2C133.8 -174.7 168.3 -190.3 181 -181C193.7 -171.7 184.6 -137.5 208.5 -120.4C232.5 -103.3 289.5 -103.3 321.5 -86.1C353.4 -68.9 360.3 -34.5 367.2 0L0 0Z" fill="#042815"></path><path d="M0 -275.4C29.4 -283.7 58.9 -292 71.3 -266C83.7 -240 79.1 -179.7 89.7 -155.4C100.3 -131 126.2 -142.7 135.8 -135.8C145.3 -128.8 138.4 -103.1 156.4 -90.3C174.4 -77.5 217.1 -77.5 241.1 -64.6C265.1 -51.7 270.2 -25.8 275.4 0L0 0Z" fill="#053016"></path><path d="M0 -183.6C19.6 -189.1 39.2 -194.7 47.5 -177.3C55.8 -160 52.7 -119.8 59.8 -103.6C66.9 -87.4 84.2 -95.2 90.5 -90.5C96.9 -85.9 92.3 -68.7 104.3 -60.2C116.2 -51.7 144.8 -51.7 160.7 -43.1C176.7 -34.5 180.2 -17.2 183.6 0L0 0Z" fill="#093916"></path><path d="M0 -91.8C9.8 -94.6 19.6 -97.3 23.8 -88.7C27.9 -80 26.4 -59.9 29.9 -51.8C33.4 -43.7 42.1 -47.6 45.3 -45.3C48.4 -42.9 46.1 -34.4 52.1 -30.1C58.1 -25.8 72.4 -25.8 80.4 -21.5C88.4 -17.2 90.1 -8.6 91.8 0L0 0Z" fill="#0c3e16"></path></g></svg>