<svg id="visual" viewBox="0 0 900 300" width="900" height="300" xmlns="http://www.w3.org/2000/svg" xmlns:xlink="http://www.w3.org/1999/xlink" version="1.1"><rect x="0" y="0" width="900" height="300" fill="#011B10"></rect><path d="M0 173L21.5 179.2C43 185.3 86 197.7 128.8 207C171.7 216.3 214.3 222.7 257.2 214C300 205.3 343 181.7 385.8 157.8C428.7 134 471.3 110 514.2 109.8C557 109.7 600 133.3 642.8 147.2C685.7 161 728.3 165 771.2 178.5C814 192 857 215 878.5 226.5L900 238L900 0L878.5 0C857 0 814 0 771.2 0C728.3 0 685.7 0 642.8 0C600 0 557 0 514.2 0C471.3 0 428.7 0 385.8 0C343 0 300 0 257.2 0C214.3 0 171.7 0 128.8 0C86 0 43 0 21.5 0L0 0Z" fill="#102f17"></path><path d="M0 101L21.5 104.5C43 108 86 115 128.8 110.2C171.7 105.3 214.3 88.7 257.2 87.5C300 86.3 343 100.7 385.8 103.7C428.7 106.7 471.3 98.3 514.2 99.8C557 101.3 600 112.7 642.8 120.2C685.7 127.7 728.3 131.3 771.2 125.8C814 120.3 857 105.7 878.5 98.3L900 91L900 0L878.5 0C857 0 814 0 771.2 0C728.3 0 685.7 0 642.8 0C600 0 557 0 514.2 0C471.3 0 428.7 0 385.8 0C343 0 300 0 257.2 0C214.3 0 171.7 0 128.8 0C86 0 43 0 21.5 0L0 0Z" fill="#0e3717"></path><path d="M0 136L21.5 137.7C43 139.3 86 142.7 128.8 140.2C171.7 137.7 214.3 129.3 257.2 122.7C300 116 343 111 385.8 117.8C428.7 124.7 471.3 143.3 514.2 137.5C557 131.7 600 101.3 642.8 89.8C685.7 78.3 728.3 85.7 771.2 93.2C814 100.7 857 108.3 878.5 112.2L900 116L900 0L878.5 0C857 0 814 0 771.2 0C728.3 0 685.7 0 642.8 0C600 0 557 0 514.2 0C471.3 0 428.7 0 385.8 0C343 0 300 0 257.2 0C214.3 0 171.7 0 128.8 0C86 0 43 0 21.5 0L0 0Z" fill="#0c3e17"></path><path d="M0 67L21.5 71C43 75 86 83 128.8 82.7C171.7 82.3 214.3 73.7 257.2 68.7C300 63.7 343 62.3 385.8 63.5C428.7 64.7 471.3 68.3 514.2 70.5C557 72.7 600 73.3 642.8 73.5C685.7 73.7 728.3 73.3 771.2 81.7C814 90 857 107 878.5 115.5L900 124L900 0L878.5 0C857 0 814 0 771.2 0C728.3 0 685.7 0 642.8 0C600 0 557 0 514.2 0C471.3 0 428.7 0 385.8 0C343 0 300 0 257.2 0C214.3 0 171.7 0 128.8 0C86 0 43 0 21.5 0L0 0Z" fill="#094617"></path><path d="M0 19L21.5 19C43 19 86 19 128.8 21.7C171.7 24.3 214.3 29.7 257.2 32C300 34.3 343 33.7 385.8 31.8C428.7 30 471.3 27 514.2 24.5C557 22 600 20 642.8 25.7C685.7 31.3 728.3 44.7 771.2 49.2C814 53.7 857 49.3 878.5 47.2L900 45L900 0L878.5 0C857 0 814 0 771.2 0C728.3 0 685.7 0 642.8 0C600 0 557 0 514.2 0C471.3 0 428.7 0 385.8 0C343 0 300 0 257.2 0C214.3 0 171.7 0 128.8 0C86 0 43 0 21.5 0L0 0Z" fill="#064e15"></path><path d="M0 53L21.5 48C43 43 86 33 128.8 28.7C171.7 24.3 214.3 25.7 257.2 32.2C300 38.7 343 50.3 385.8 55C428.7 59.7 471.3 57.3 514.2 51.8C557 46.3 600 37.7 642.8 33.5C685.7 29.3 728.3 29.7 771.2 29.5C814 29.3 857 28.7 878.5 28.3L900 28L900 0L878.5 0C857 0 814 0 771.2 0C728.3 0 685.7 0 642.8 0C600 0 557 0 514.2 0C471.3 0 428.7 0 385.8 0C343 0 300 0 257.2 0C214.3 0 171.7 0 128.8 0C86 0 43 0 21.5 0L0 0Z" fill="#035613"></path></svg>