<svg id="visual" viewBox="0 0 900 300" width="900" height="300" xmlns="http://www.w3.org/2000/svg" xmlns:xlink="http://www.w3.org/1999/xlink" version="1.1"><rect x="0" y="0" width="900" height="300" fill="#011B10"></rect><path d="M0 99L21.5 114.8C43 130.7 86 162.3 128.8 171.8C171.7 181.3 214.3 168.7 257.2 156C300 143.3 343 130.7 385.8 138.5C428.7 146.3 471.3 174.7 514.2 182.7C557 190.7 600 178.3 642.8 168C685.7 157.7 728.3 149.3 771.2 155C814 160.7 857 180.3 878.5 190.2L900 200L900 0L878.5 0C857 0 814 0 771.2 0C728.3 0 685.7 0 642.8 0C600 0 557 0 514.2 0C471.3 0 428.7 0 385.8 0C343 0 300 0 257.2 0C214.3 0 171.7 0 128.8 0C86 0 43 0 21.5 0L0 0Z" fill="#102f17"></path><path d="M0 98L21.5 99.3C43 100.7 86 103.3 128.8 107.7C171.7 112 214.3 118 257.2 123C300 128 343 132 385.8 126C428.7 120 471.3 104 514.2 103.3C557 102.7 600 117.3 642.8 136.5C685.7 155.7 728.3 179.3 771.2 172.5C814 165.7 857 128.3 878.5 109.7L900 91L900 0L878.5 0C857 0 814 0 771.2 0C728.3 0 685.7 0 642.8 0C600 0 557 0 514.2 0C471.3 0 428.7 0 385.8 0C343 0 300 0 257.2 0C214.3 0 171.7 0 128.8 0C86 0 43 0 21.5 0L0 0Z" fill="#0e3717"></path><path d="M0 102L21.5 110.7C43 119.3 86 136.7 128.8 146.2C171.7 155.7 214.3 157.3 257.2 151.2C300 145 343 131 385.8 128.3C428.7 125.7 471.3 134.3 514.2 124C557 113.7 600 84.3 642.8 86.2C685.7 88 728.3 121 771.2 133.7C814 146.3 857 138.7 878.5 134.8L900 131L900 0L878.5 0C857 0 814 0 771.2 0C728.3 0 685.7 0 642.8 0C600 0 557 0 514.2 0C471.3 0 428.7 0 385.8 0C343 0 300 0 257.2 0C214.3 0 171.7 0 128.8 0C86 0 43 0 21.5 0L0 0Z" fill="#0c3e17"></path><path d="M0 76L21.5 77.2C43 78.3 86 80.7 128.8 75.3C171.7 70 214.3 57 257.2 63C300 69 343 94 385.8 102.3C428.7 110.7 471.3 102.3 514.2 90.5C557 78.7 600 63.3 642.8 66.8C685.7 70.3 728.3 92.7 771.2 92.3C814 92 857 69 878.5 57.5L900 46L900 0L878.5 0C857 0 814 0 771.2 0C728.3 0 685.7 0 642.8 0C600 0 557 0 514.2 0C471.3 0 428.7 0 385.8 0C343 0 300 0 257.2 0C214.3 0 171.7 0 128.8 0C86 0 43 0 21.5 0L0 0Z" fill="#094617"></path><path d="M0 56L21.5 53.8C43 51.7 86 47.3 128.8 47.3C171.7 47.3 214.3 51.7 257.2 56.7C300 61.7 343 67.3 385.8 62.5C428.7 57.7 471.3 42.3 514.2 42.3C557 42.3 600 57.7 642.8 66.3C685.7 75 728.3 77 771.2 79.7C814 82.3 857 85.7 878.5 87.3L900 89L900 0L878.5 0C857 0 814 0 771.2 0C728.3 0 685.7 0 642.8 0C600 0 557 0 514.2 0C471.3 0 428.7 0 385.8 0C343 0 300 0 257.2 0C214.3 0 171.7 0 128.8 0C86 0 43 0 21.5 0L0 0Z" fill="#064e15"></path><path d="M0 50L21.5 51.7C43 53.3 86 56.7 128.8 56.7C171.7 56.7 214.3 53.3 257.2 43.5C300 33.7 343 17.3 385.8 16.3C428.7 15.3 471.3 29.7 514.2 39.8C557 50 600 56 642.8 56.7C685.7 57.3 728.3 52.7 771.2 45.5C814 38.3 857 28.7 878.5 23.8L900 19L900 0L878.5 0C857 0 814 0 771.2 0C728.3 0 685.7 0 642.8 0C600 0 557 0 514.2 0C471.3 0 428.7 0 385.8 0C343 0 300 0 257.2 0C214.3 0 171.7 0 128.8 0C86 0 43 0 21.5 0L0 0Z" fill="#035613"></path></svg>