<svg id="visual" viewBox="0 0 900 200" width="900" height="200" xmlns="http://www.w3.org/2000/svg" xmlns:xlink="http://www.w3.org/1999/xlink" version="1.1"><rect x="0" y="0" width="900" height="200" fill="#011B10"></rect><path d="M0 154L21.5 141.2C43 128.3 86 102.7 128.8 97.8C171.7 93 214.3 109 257.2 114.8C300 120.7 343 116.3 385.8 109C428.7 101.7 471.3 91.3 514.2 98.7C557 106 600 131 642.8 140.5C685.7 150 728.3 144 771.2 135.7C814 127.3 857 116.7 878.5 111.3L900 106L900 0L878.5 0C857 0 814 0 771.2 0C728.3 0 685.7 0 642.8 0C600 0 557 0 514.2 0C471.3 0 428.7 0 385.8 0C343 0 300 0 257.2 0C214.3 0 171.7 0 128.8 0C86 0 43 0 21.5 0L0 0Z" fill="#102f17"></path><path d="M0 78L21.5 87.5C43 97 86 116 128.8 114.8C171.7 113.7 214.3 92.3 257.2 85.3C300 78.3 343 85.7 385.8 85C428.7 84.3 471.3 75.7 514.2 75C557 74.3 600 81.7 642.8 93C685.7 104.3 728.3 119.7 771.2 124C814 128.3 857 121.7 878.5 118.3L900 115L900 0L878.5 0C857 0 814 0 771.2 0C728.3 0 685.7 0 642.8 0C600 0 557 0 514.2 0C471.3 0 428.7 0 385.8 0C343 0 300 0 257.2 0C214.3 0 171.7 0 128.8 0C86 0 43 0 21.5 0L0 0Z" fill="#0e3717"></path><path d="M0 82L21.5 74C43 66 86 50 128.8 44.8C171.7 39.7 214.3 45.3 257.2 54C300 62.7 343 74.3 385.8 81.7C428.7 89 471.3 92 514.2 96.3C557 100.7 600 106.3 642.8 106.3C685.7 106.3 728.3 100.7 771.2 96.5C814 92.3 857 89.7 878.5 88.3L900 87L900 0L878.5 0C857 0 814 0 771.2 0C728.3 0 685.7 0 642.8 0C600 0 557 0 514.2 0C471.3 0 428.7 0 385.8 0C343 0 300 0 257.2 0C214.3 0 171.7 0 128.8 0C86 0 43 0 21.5 0L0 0Z" fill="#0c3e17"></path><path d="M0 39L21.5 38.2C43 37.3 86 35.7 128.8 42.8C171.7 50 214.3 66 257.2 75C300 84 343 86 385.8 79C428.7 72 471.3 56 514.2 56.3C557 56.7 600 73.3 642.8 73.2C685.7 73 728.3 56 771.2 49.2C814 42.3 857 45.7 878.5 47.3L900 49L900 0L878.5 0C857 0 814 0 771.2 0C728.3 0 685.7 0 642.8 0C600 0 557 0 514.2 0C471.3 0 428.7 0 385.8 0C343 0 300 0 257.2 0C214.3 0 171.7 0 128.8 0C86 0 43 0 21.5 0L0 0Z" fill="#094617"></path><path d="M0 60L21.5 59.5C43 59 86 58 128.8 56.7C171.7 55.3 214.3 53.7 257.2 54.3C300 55 343 58 385.8 57.3C428.7 56.7 471.3 52.3 514.2 48.7C557 45 600 42 642.8 44.7C685.7 47.3 728.3 55.7 771.2 52.2C814 48.7 857 33.3 878.5 25.7L900 18L900 0L878.5 0C857 0 814 0 771.2 0C728.3 0 685.7 0 642.8 0C600 0 557 0 514.2 0C471.3 0 428.7 0 385.8 0C343 0 300 0 257.2 0C214.3 0 171.7 0 128.8 0C86 0 43 0 21.5 0L0 0Z" fill="#064e15"></path><path d="M0 36L21.5 35.7C43 35.3 86 34.7 128.8 29.8C171.7 25 214.3 16 257.2 10.3C300 4.7 343 2.3 385.8 7.7C428.7 13 471.3 26 514.2 33.5C557 41 600 43 642.8 39C685.7 35 728.3 25 771.2 21.8C814 18.7 857 22.3 878.5 24.2L900 26L900 0L878.5 0C857 0 814 0 771.2 0C728.3 0 685.7 0 642.8 0C600 0 557 0 514.2 0C471.3 0 428.7 0 385.8 0C343 0 300 0 257.2 0C214.3 0 171.7 0 128.8 0C86 0 43 0 21.5 0L0 0Z" fill="#035613"></path></svg>