<svg id="visual" viewBox="0 0 900 200" width="900" height="200" xmlns="http://www.w3.org/2000/svg" xmlns:xlink="http://www.w3.org/1999/xlink" version="1.1"><rect x="0" y="0" width="900" height="200" fill="#011B10"></rect><path d="M0 115L21.5 119.2C43 123.3 86 131.7 128.8 138C171.7 144.3 214.3 148.7 257.2 142.8C300 137 343 121 385.8 105C428.7 89 471.3 73 514.2 72.8C557 72.7 600 88.3 642.8 97.5C685.7 106.7 728.3 109.3 771.2 118.3C814 127.3 857 142.7 878.5 150.3L900 158L900 0L878.5 0C857 0 814 0 771.2 0C728.3 0 685.7 0 642.8 0C600 0 557 0 514.2 0C471.3 0 428.7 0 385.8 0C343 0 300 0 257.2 0C214.3 0 171.7 0 128.8 0C86 0 43 0 21.5 0L0 0Z" fill="#102f17"></path><path d="M0 67L21.5 69.3C43 71.7 86 76.3 128.8 73C171.7 69.7 214.3 58.3 257.2 57.5C300 56.7 343 66.3 385.8 68.3C428.7 70.3 471.3 64.7 514.2 65.7C557 66.7 600 74.3 642.8 79.5C685.7 84.7 728.3 87.3 771.2 83.7C814 80 857 70 878.5 65L900 60L900 0L878.5 0C857 0 814 0 771.2 0C728.3 0 685.7 0 642.8 0C600 0 557 0 514.2 0C471.3 0 428.7 0 385.8 0C343 0 300 0 257.2 0C214.3 0 171.7 0 128.8 0C86 0 43 0 21.5 0L0 0Z" fill="#0e3717"></path><path d="M0 90L21.5 91.2C43 92.3 86 94.7 128.8 93C171.7 91.3 214.3 85.7 257.2 81.3C300 77 343 74 385.8 78.5C428.7 83 471.3 95 514.2 91C557 87 600 67 642.8 59.5C685.7 52 728.3 57 771.2 62C814 67 857 72 878.5 74.5L900 77L900 0L878.5 0C857 0 814 0 771.2 0C728.3 0 685.7 0 642.8 0C600 0 557 0 514.2 0C471.3 0 428.7 0 385.8 0C343 0 300 0 257.2 0C214.3 0 171.7 0 128.8 0C86 0 43 0 21.5 0L0 0Z" fill="#0c3e17"></path><path d="M0 44L21.5 46.7C43 49.3 86 54.7 128.8 54.5C171.7 54.3 214.3 48.7 257.2 45.3C300 42 343 41 385.8 41.8C428.7 42.7 471.3 45.3 514.2 46.8C557 48.3 600 48.7 642.8 48.8C685.7 49 728.3 49 771.2 54.5C814 60 857 71 878.5 76.5L900 82L900 0L878.5 0C857 0 814 0 771.2 0C728.3 0 685.7 0 642.8 0C600 0 557 0 514.2 0C471.3 0 428.7 0 385.8 0C343 0 300 0 257.2 0C214.3 0 171.7 0 128.8 0C86 0 43 0 21.5 0L0 0Z" fill="#094617"></path><path d="M0 12L21.5 12C43 12 86 12 128.8 13.8C171.7 15.7 214.3 19.3 257.2 21C300 22.7 343 22.3 385.8 21.2C428.7 20 471.3 18 514.2 16.3C557 14.7 600 13.3 642.8 17C685.7 20.7 728.3 29.3 771.2 32.3C814 35.3 857 32.7 878.5 31.3L900 30L900 0L878.5 0C857 0 814 0 771.2 0C728.3 0 685.7 0 642.8 0C600 0 557 0 514.2 0C471.3 0 428.7 0 385.8 0C343 0 300 0 257.2 0C214.3 0 171.7 0 128.8 0C86 0 43 0 21.5 0L0 0Z" fill="#064e15"></path><path d="M0 35L21.5 31.7C43 28.3 86 21.7 128.8 18.8C171.7 16 214.3 17 257.2 21.3C300 25.7 343 33.3 385.8 36.3C428.7 39.3 471.3 37.7 514.2 34C557 30.3 600 24.7 642.8 21.8C685.7 19 728.3 19 771.2 18.8C814 18.7 857 18.3 878.5 18.2L900 18L900 0L878.5 0C857 0 814 0 771.2 0C728.3 0 685.7 0 642.8 0C600 0 557 0 514.2 0C471.3 0 428.7 0 385.8 0C343 0 300 0 257.2 0C214.3 0 171.7 0 128.8 0C86 0 43 0 21.5 0L0 0Z" fill="#035613"></path></svg>