<svg xmlns="http://www.w3.org/2000/svg" xmlns:xlink="http://www.w3.org/1999/xlink" id="visual" viewBox="0 0 360 640" width="360" height="640" version="1.1"><rect x="0" y="0" width="360" height="640" fill="#011b10"/><defs><linearGradient id="grad1_0" x1="0%" y1="0%" x2="100%" y2="100%"><stop offset="30%" stop-color="#0c3e16" stop-opacity="1"/><stop offset="70%" stop-color="#0c3e16" stop-opacity="1"/></linearGradient></defs><defs><linearGradient id="grad1_1" x1="0%" y1="0%" x2="100%" y2="100%"><stop offset="30%" stop-color="#0c3e16" stop-opacity="1"/><stop offset="70%" stop-color="#053216" stop-opacity="1"/></linearGradient></defs><defs><linearGradient id="grad1_2" x1="0%" y1="0%" x2="100%" y2="100%"><stop offset="30%" stop-color="#042615" stop-opacity="1"/><stop offset="70%" stop-color="#053216" stop-opacity="1"/></linearGradient></defs><defs><linearGradient id="grad1_3" x1="0%" y1="0%" x2="100%" y2="100%"><stop offset="30%" stop-color="#042615" stop-opacity="1"/><stop offset="70%" stop-color="#011b10" stop-opacity="1"/></linearGradient></defs><defs><linearGradient id="grad2_0" x1="0%" y1="0%" x2="100%" y2="100%"><stop offset="30%" stop-color="#0c3e16" stop-opacity="1"/><stop offset="70%" stop-color="#0c3e16" stop-opacity="1"/></linearGradient></defs><defs><linearGradient id="grad2_1" x1="0%" y1="0%" x2="100%" y2="100%"><stop offset="30%" stop-color="#053216" stop-opacity="1"/><stop offset="70%" stop-color="#0c3e16" stop-opacity="1"/></linearGradient></defs><defs><linearGradient id="grad2_2" x1="0%" y1="0%" x2="100%" y2="100%"><stop offset="30%" stop-color="#053216" stop-opacity="1"/><stop offset="70%" stop-color="#042615" stop-opacity="1"/></linearGradient></defs><defs><linearGradient id="grad2_3" x1="0%" y1="0%" x2="100%" y2="100%"><stop offset="30%" stop-color="#011b10" stop-opacity="1"/><stop offset="70%" stop-color="#042615" stop-opacity="1"/></linearGradient></defs><g transform="translate(360, 0)"><path d="M0 306C-27.4 295.8 -54.9 285.6 -70.4 262.7C-85.9 239.9 -89.6 204.4 -115.5 200.1C-141.4 195.7 -189.6 222.3 -216.4 216.4C-243.1 210.4 -248.5 171.8 -242.5 140C-236.5 108.2 -219.3 83.3 -228 61.1C-236.7 38.9 -271.3 19.4 -306 0L0 0Z" fill="#042013"/><path d="M0 229.5C-20.6 221.8 -41.1 214.2 -52.8 197C-64.5 179.9 -67.2 153.3 -86.6 150C-106.1 146.7 -142.2 166.8 -162.3 162.3C-182.4 157.8 -186.3 128.8 -181.9 105C-177.4 81.2 -164.4 62.5 -171 45.8C-177.5 29.2 -203.5 14.6 -229.5 0L0 0Z" fill="#042c16"/><path d="M0 153C-13.7 147.9 -27.4 142.8 -35.2 131.4C-43 119.9 -44.8 102.2 -57.7 100C-70.7 97.8 -94.8 111.2 -108.2 108.2C-121.6 105.2 -124.2 85.9 -121.2 70C-118.3 54.1 -109.6 41.6 -114 30.5C-118.3 19.4 -135.7 9.7 -153 0L0 0Z" fill="#083817"/><path d="M0 76.5C-6.9 73.9 -13.7 71.4 -17.6 65.7C-21.5 60 -22.4 51.1 -28.9 50C-35.4 48.9 -47.4 55.6 -54.1 54.1C-60.8 52.6 -62.1 42.9 -60.6 35C-59.1 27.1 -54.8 20.8 -57 15.3C-59.2 9.7 -67.8 4.9 -76.5 0L0 0Z" fill="#0c3e16"/></g><g transform="translate(0, 640)"><path d="M0 -306C31.6 -312.3 63.3 -318.7 79.2 -295.6C95.1 -272.5 95.4 -219.9 119.5 -207C143.6 -194.1 191.6 -220.9 212.8 -212.8C234 -204.8 228.4 -161.9 229.5 -132.5C230.5 -103.1 238.2 -87.4 252.1 -67.6C266 -47.7 286 -23.9 306 0L0 0Z" fill="#042013"/><path d="M0 -229.5C23.7 -234.3 47.4 -239 59.4 -221.7C71.4 -204.3 71.5 -164.9 89.6 -155.2C107.7 -145.6 143.7 -165.7 159.6 -159.6C175.5 -153.6 171.3 -121.4 172.1 -99.4C172.9 -77.4 178.7 -65.5 189.1 -50.7C199.5 -35.8 214.5 -17.9 229.5 0L0 0Z" fill="#042c16"/><path d="M0 -153C15.8 -156.2 31.6 -159.3 39.6 -147.8C47.6 -136.2 47.7 -109.9 59.7 -103.5C71.8 -97 95.8 -110.4 106.4 -106.4C117 -102.4 114.2 -80.9 114.7 -66.3C115.3 -51.6 119.1 -43.7 126.1 -33.8C133 -23.9 143 -11.9 153 0L0 0Z" fill="#083817"/><path d="M0 -76.5C7.9 -78.1 15.8 -79.7 19.8 -73.9C23.8 -68.1 23.8 -55 29.9 -51.7C35.9 -48.5 47.9 -55.2 53.2 -53.2C58.5 -51.2 57.1 -40.5 57.4 -33.1C57.6 -25.8 59.6 -21.8 63 -16.9C66.5 -11.9 71.5 -6 76.5 0L0 0Z" fill="#0c3e16"/></g></svg>